PathFileType  4	(X/Y/Z) C:\Users\antoi\Documents\MyRepositories\mobilecap\ResultsAnalysis
DataRate	CameraRate	NumFrames	NumMarkers	Units	OrigDataRate	OrigDataStartFrame	OrigNumFrames
100.0	100.0	4	51	mm	100.0	107	142
Frame#	Time	r_knee			r_shank_antsup			r_ankle			r_calc			r_5meta			r_toe			L_knee			L_shank_antsup			L_ankle			L_calc			L_5meta			L_toe			r_sh2			r_sh3			r_sh4			L_sh2			L_sh3			r_thigh1			r_thigh2			r_thigh3			r_thigh4			r_thigh5			L_thigh1			L_thigh2			L_thigh3			L_thigh4			r.ASIS			r.PSIS			L.ASIS			L.PSIS			C7			R_Shoulder			L_Shoulder			R_Sternum			L_Sternum			R_humerus			R_elbow_med			R_elbow_lat			R_forearm			R_wrist_radius			R_wrist_ulna			L_humerus			L_elbow_med			L_elbow_lat			L_forearm			L_wrist_radius			L_wrist_ulna			R_HJC			L_HJC			R_HJC_reg			L_HJC_reg			
		X1	Y1	Z1	X2	Y2	Z2	X3	Y3	Z3	X4	Y4	Z4	X5	Y5	Z5	X6	Y6	Z6	X7	Y7	Z7	X8	Y8	Z8	X9	Y9	Z9	X10	Y10	Z10	X11	Y11	Z11	X12	Y12	Z12	X13	Y13	Z13	X14	Y14	Z14	X15	Y15	Z15	X16	Y16	Z16	X17	Y17	Z17	X18	Y18	Z18	X19	Y19	Z19	X20	Y20	Z20	X21	Y21	Z21	X22	Y22	Z22	X23	Y23	Z23	X24	Y24	Z24	X25	Y25	Z25	X26	Y26	Z26	X27	Y27	Z27	X28	Y28	Z28	X29	Y29	Z29	X30	Y30	Z30	X31	Y31	Z31	X32	Y32	Z32	X33	Y33	Z33	X34	Y34	Z34	X35	Y35	Z35	X36	Y36	Z36	X37	Y37	Z37	X38	Y38	Z38	X39	Y39	Z39	X40	Y40	Z40	X41	Y41	Z41	X42	Y42	Z42	X43	Y43	Z43	X44	Y44	Z44	X45	Y45	Z45	X46	Y46	Z46	X47	Y47	Z47	X48	Y48	Z48	X49	Y49	Z49	X50	Y50	Z50	X51	Y51	Z51	

107	1.06000000	1216.94677	481.50519	-140.97987	1229.43994	413.45407	-113.67910	1284.09342	110.66188	-152.87752	1246.47638	62.81875	-214.61124	1384.43431	76.68032	-97.13976	1435.67371	116.86188	-131.68867	962.27002	467.66556	-437.01697	969.81348	404.43842	-443.48515	879.24463	101.04711	-415.10694	805.82709	74.33318	-366.99252	966.25573	36.81384	-430.97208	1018.76344	59.61031	-377.52738	1249.74570	302.91716	-111.50329	1165.36498	400.52139	-151.01391	1181.53681	286.08412	-155.22424	882.78087	429.58436	-448.89023	861.16275	310.98388	-450.54995	1164.90122	790.23484	-157.25795	1214.61371	690.17617	-136.79242	1170.19079	652.34538	-100.66738	1068.71307	755.14475	-112.38365	1112.62652	646.48531	-113.16765	1108.74969	727.40999	-470.12454	1075.87514	592.14951	-458.36537	996.07589	751.32887	-489.60545	969.56554	613.65427	-463.48558	1137.80112	913.65204	-183.01566	960.23477	926.17718	-264.93392	1152.57942	892.78902	-438.80485	963.14710	923.35371	-371.69752	1053.17551	1387.86058	-369.94148	1073.72606	1346.20440	-202.50498	1138.87759	1315.05733	-513.38442	1157.06420	1301.04544	-322.26981	1163.64865	1295.77161	-366.22668	1041.26620	1120.89446	-94.98274	997.54227	1013.38976	-140.16795	1007.32524	1040.61299	-72.64151	1070.50004	937.32893	-42.40319	1109.02222	824.77053	-28.08344	1067.62403	812.28498	-19.60299	1189.11238	1187.27409	-543.37106	1143.48607	967.39664	-533.22248	1181.35202	981.25629	-580.47282	1263.82415	909.39153	-553.78515	1315.71000	802.00643	-513.19361	1298.56362	780.53251	-538.92212	1072.46551	836.75700	-208.31779	1085.20189	825.68973	-407.90005	1081.43485	822.33552	-218.31552	1086.06044	817.85238	-387.85340	
108	1.07000000	1226.68305	478.65255	-143.29055	1242.29379	411.72194	-115.86778	1309.60712	111.06243	-152.93827	1273.32161	60.74704	-213.71875	1412.06908	81.95419	-98.23352	1460.98136	124.00852	-133.79965	969.42238	467.29897	-437.12049	975.82140	403.98113	-443.49756	880.25601	102.09846	-414.99015	806.43174	75.72978	-366.91662	966.54075	36.87155	-430.90411	1019.05926	58.97084	-377.31201	1267.07656	302.12764	-113.00193	1178.63962	395.66185	-152.80214	1199.39742	282.27959	-156.05238	889.28414	430.45682	-449.25955	865.75919	312.20782	-450.75390	1176.41352	787.33937	-156.05703	1225.04809	686.51989	-136.09589	1179.39203	648.54246	-101.30206	1079.28487	752.64092	-112.82926	1121.93133	643.50248	-114.70458	1119.22924	725.27607	-469.77664	1084.89055	590.42992	-458.04390	1006.95228	750.37484	-490.16882	978.74909	613.02533	-463.73468	1149.76801	911.62675	-182.62353	972.22951	924.45975	-264.85438	1164.48379	890.47163	-438.51178	975.22486	921.57414	-371.63808	1063.96186	1386.11449	-367.91656	1083.69600	1342.96902	-200.57862	1150.52761	1314.90059	-511.76592	1167.82812	1299.32170	-320.36998	1174.75733	1294.56108	-364.38409	1051.82884	1116.66423	-94.91796	1009.34619	1009.11957	-141.05252	1018.16241	1036.07063	-73.28814	1081.21318	932.98692	-42.42533	1120.00112	820.53234	-27.71517	1078.25585	807.96744	-20.19078	1201.00688	1187.22149	-542.43246	1155.75678	967.25631	-532.89134	1193.56848	981.37606	-580.19785	1276.22143	909.54536	-553.14686	1328.15014	802.21541	-512.40876	1311.26011	780.78561	-538.41862	1084.19311	834.85441	-208.02264	1097.03848	823.56264	-407.58698	1093.14199	820.30293	-217.94220	1097.89976	815.72019	-387.55234	
109	1.08000000	1236.74562	475.90735	-145.45302	1255.31073	410.15771	-117.97965	1334.02099	111.78244	-153.25186	1298.81226	59.26709	-213.01708	1438.25409	87.34780	-99.77814	1484.86773	130.96493	-136.43339	976.83250	467.01753	-437.23470	982.09726	403.54270	-443.55611	881.37277	103.29911	-414.96115	807.13415	77.37269	-366.90739	966.84291	36.90089	-430.84678	1019.37958	58.32382	-377.13528	1284.15989	301.57196	-114.47531	1191.98118	391.23048	-154.19682	1216.93119	278.83032	-156.73930	896.12566	431.43686	-449.58512	870.56293	313.58040	-450.94228	1188.31717	784.50091	-155.16737	1235.82462	682.93486	-135.85728	1189.35290	645.00266	-101.88179	1090.54458	750.35276	-112.92582	1131.91211	640.74714	-115.77842	1129.74971	723.22372	-469.60348	1094.00809	588.79083	-457.89992	1017.80087	749.54050	-490.47888	988.04791	612.46457	-463.79011	1161.94881	909.59433	-182.31191	984.36029	922.73645	-264.55070	1176.43771	888.25222	-438.30401	987.34821	919.83091	-371.32924	1074.89000	1384.36430	-365.80027	1093.90915	1339.69798	-198.58158	1162.28561	1314.66918	-510.05315	1178.74525	1297.53237	-318.42858	1186.01720	1293.29943	-362.47888	1062.63550	1112.44372	-94.76743	1021.25355	1004.90066	-141.83590	1029.21412	1031.56504	-73.81453	1092.14853	928.65010	-42.39708	1131.19101	816.31188	-27.36556	1089.13482	803.64699	-20.86087	1213.00774	1187.06947	-541.35396	1167.99090	967.06421	-532.31992	1205.74632	981.37985	-579.65788	1288.44916	909.46960	-552.47352	1340.35168	802.11652	-511.74023	1323.61773	780.75698	-537.96598	1096.17284	832.93987	-207.70710	1108.89840	821.51502	-407.27188	1105.06866	818.27186	-217.63314	1109.81621	813.65549	-387.31285	
110	1.09000000	1247.26981	473.32204	-147.39021	1268.54981	408.73981	-119.94343	1357.15084	112.57228	-153.88995	1322.72434	58.20246	-212.61114	1462.82143	92.52154	-101.81956	1507.21244	137.41626	-139.58145	984.51812	466.82481	-437.38435	988.69313	403.11716	-443.67196	882.62513	104.65258	-415.04566	807.96073	79.29984	-366.98518	967.16403	36.90100	-430.80549	1019.76572	57.69234	-377.01309	1300.99690	301.17340	-115.91393	1205.39136	387.25392	-155.12866	1234.03810	275.68262	-157.28361	903.35230	432.51169	-449.91080	875.62290	315.09303	-451.15705	1200.65197	781.80334	-154.70720	1247.02411	679.52028	-136.22315	1200.25139	641.83889	-102.42940	1102.60159	748.32870	-112.66025	1142.74414	638.28622	-116.33808	1140.29596	721.28463	-469.61192	1103.20926	587.25255	-457.94910	1028.61220	748.84865	-490.52388	997.46208	612.00145	-463.65802	1174.39746	907.62919	-182.09498	996.63063	921.02450	-264.02828	1188.42767	886.15575	-438.20017	999.51407	918.14820	-370.77876	1085.95651	1382.63526	-363.57868	1104.37546	1336.42803	-196.50690	1174.15729	1314.39482	-508.22862	1189.85576	1295.72188	-316.43897	1197.43077	1292.00499	-360.50968	1073.69514	1108.26973	-94.52812	1033.29731	1000.76247	-142.52737	1040.49231	1027.12053	-74.23566	1103.30819	924.34281	-42.31841	1142.57377	812.13447	-27.03102	1100.32925	799.31495	-21.62624	1225.13145	1186.85196	-540.10660	1180.17781	966.84291	-531.51423	1217.89566	981.28782	-578.83192	1300.50767	909.20105	-551.76124	1352.30664	801.73712	-511.19123	1335.62930	780.47121	-537.56923	1108.44492	831.06940	-207.37271	1120.79055	819.57105	-406.95594	1117.26716	816.26231	-217.40294	1121.85145	811.68938	-387.15359	
